<?xml version="1.0" standalone="no"?><!DOCTYPE svg PUBLIC "-//W3C//DTD SVG 1.1//EN" "http://www.w3.org/Graphics/SVG/1.1/DTD/svg11.dtd"><svg t="1724403490048" class="icon" viewBox="0 0 1024 1024" version="1.1" xmlns="http://www.w3.org/2000/svg" p-id="2571" xmlns:xlink="http://www.w3.org/1999/xlink" width="200" height="200"><path d="M853.587 534.038m-28 0a28 28 0 1 0 56 0 28 28 0 1 0-56 0Z" fill="#21DB56" p-id="2572"></path><path d="M853.587 577.038c-23.71 0-43-19.29-43-43s19.29-43 43-43 43 19.29 43 43-19.29 43-43 43z m0-56.001c-7.168 0-13 5.832-13 13.001 0 7.168 5.832 13 13 13s13-5.832 13-13c0-7.169-5.832-13.001-13-13.001z" fill="#2B2B2B" p-id="2573"></path><path d="M429.644 549.901c-10.751 24.628-38.528 36.272-62.041 26.007-23.513-10.265-33.858-38.55-23.107-63.178l57.358-131.389c10.751-24.628 38.528-36.272 62.041-26.007 23.513 10.265 33.858 38.551 23.107 63.178l-57.358 131.389z" fill="#FC9047" p-id="2574" data-spm-anchor-id="a313x.search_index.0.i1.1cbc3a81c0Ssxy" class="selected"></path><path d="M385.46 594.639a59.3 59.3 0 0 1-23.859-4.983c-31.055-13.557-44.896-50.758-30.853-82.926l57.358-131.39c10.272-23.531 33.012-38.737 57.931-38.737a59.285 59.285 0 0 1 23.859 4.984c31.056 13.558 44.896 50.758 30.853 82.927l-57.357 131.389c-10.273 23.532-33.013 38.736-57.932 38.736z m60.577-228.036c-12.99 0-24.937 8.141-30.437 20.739l-57.358 131.39c-7.424 17.008-0.533 36.49 15.362 43.43a29.445 29.445 0 0 0 11.856 2.478c12.99 0 24.937-8.141 30.437-20.738l57.357-131.39c7.425-17.008 0.534-36.491-15.361-43.43a29.446 29.446 0 0 0-11.856-2.479z" fill="#2B2B2B" p-id="2575"></path><path d="M528.297 226.286m-105.88 0a105.88 105.88 0 1 0 211.76 0 105.88 105.88 0 1 0-211.76 0Z" fill="#F2D8AA" p-id="2576"></path><path d="M528.395 345.929c-40.432 0-77.826-20.141-100.028-53.875-17.567-26.692-23.689-58.628-17.237-89.924 6.452-31.296 24.706-58.207 51.397-75.774 19.596-12.896 42.303-19.713 65.672-19.713 40.432 0 77.827 20.14 100.03 53.875 36.265 55.101 20.939 129.433-34.162 165.698-19.597 12.896-42.304 19.713-65.672 19.713z m-0.196-211.785c-17.978 0-35.459 5.251-50.553 15.184-20.555 13.528-34.613 34.253-39.582 58.354-4.969 24.102-0.255 48.696 13.275 69.252 17.098 25.981 45.905 41.492 77.055 41.492 17.978 0 35.459-5.251 50.553-15.184 42.434-27.928 54.236-85.172 26.308-127.607-17.1-25.98-45.906-41.491-77.056-41.491zM643.317 538.021c-39.191 0-75.271-6.314-107.587-18.859-32.616-12.662-61.399-31.622-85.549-56.353-41.128-42.117-54.481-86.313-55.029-88.174-2.342-7.946 2.202-16.286 10.149-18.628 7.932-2.337 16.264 2.19 18.618 10.118 0.205 0.673 12.406 40.023 48.684 76.699 48.447 48.978 115.154 70.549 198.266 64.109 8.249-0.652 15.474 5.536 16.113 13.797 0.64 8.259-5.537 15.474-13.797 16.113a386.068 386.068 0 0 1-29.868 1.178z" fill="#2B2B2B" p-id="2577"></path><path d="M636.717 509.967c-53.1 0-91.268-20.773-115.033-39.721-29.84-23.792-43.813-49.722-44.394-50.814-3.887-7.316-1.107-16.397 6.209-20.284 7.299-3.88 16.363-1.117 20.262 6.168 0.154 0.285 12.245 22.339 37.568 42.219 33.369 26.195 73.184 36.613 118.339 30.971 8.216-1.025 15.717 4.803 16.744 13.024 1.028 8.22-4.803 15.717-13.023 16.745-9.274 1.159-18.166 1.692-26.672 1.692z" fill="#2B2B2B" p-id="2578"></path><path d="M652.521 529.39a14.94 14.94 0 0 1-9.728-3.588c-6.303-5.376-7.054-14.843-1.678-21.146L771.61 351.663c5.375-6.303 14.843-7.054 21.146-1.678 6.303 5.376 7.054 14.844 1.678 21.147L663.94 524.124a14.963 14.963 0 0 1-11.419 5.266zM495.583 894.572c-8.072 0-14.736-6.417-14.985-14.541-0.035-1.159-3.579-116.333-6.521-156.044-0.246-3.321-4.722-23.258-68.856-89.771-34.864-36.157-69.889-67.887-70.238-68.202-6.144-5.557-6.621-15.043-1.064-21.187 5.557-6.144 15.042-6.62 21.186-1.065 0.356 0.322 36.04 32.644 71.607 69.521 67.233 69.71 76.307 95.302 77.284 108.487 2.99 40.358 6.443 152.585 6.589 157.343 0.253 8.28-6.254 15.198-14.535 15.452-0.156 0.005-0.312 0.007-0.467 0.007z" fill="#2B2B2B" p-id="2579"></path><path d="M122.091 747.581c-7.454 0-13.915-5.551-14.865-13.139-1.029-8.221 4.801-15.719 13.021-16.747 1.253-0.157 125.734-15.741 158.273-20.179 0.599-0.1 15.484-3.171 62.062-63.862 24.733-32.228 45.703-64.17 45.912-64.489 4.54-6.929 13.836-8.867 20.767-4.326 6.93 4.54 8.867 13.838 4.327 20.768-0.885 1.351-21.977 33.478-47.525 66.728-48.531 63.162-69.042 73.21-81.489 74.907-32.702 4.46-157.346 20.064-158.601 20.222-0.632 0.078-1.261 0.117-1.882 0.117z" fill="#2B2B2B" p-id="2580"></path><path d="M767.373398 262.138404a65.997 86.996 34.905 1 0 108.248536 75.52927 65.997 86.996 34.905 1 0-108.248536-75.52927Z" fill="#FFFFFF" p-id="2581"></path><path d="M802.779 395.64c-14.581 0-28.282-4.181-39.62-12.091-18.396-12.835-29.086-33.896-30.098-59.304-0.951-23.859 6.873-48.964 22.031-70.69 21.257-30.468 53.891-49.395 85.168-49.395 14.581 0 28.282 4.181 39.62 12.091 18.396 12.835 29.085 33.896 30.098 59.304 0.951 23.859-6.873 48.964-22.031 70.69-21.257 30.468-53.89 49.395-85.168 49.395z m37.482-161.48c-21.296 0-45.069 14.351-60.564 36.56-11.435 16.389-17.351 34.974-16.659 52.331 0.63 15.809 6.77 28.556 17.288 35.895 6.367 4.442 13.922 6.695 22.454 6.695 21.296 0 45.069-14.351 60.564-36.56 11.434-16.389 17.351-34.974 16.659-52.331-0.63-15.809-6.77-28.557-17.288-35.895-6.367-4.443-13.922-6.695-22.454-6.695z" fill="#2B2B2B" p-id="2582"></path></svg>